<svg width="52" height="70" viewBox="0 0 52 70" fill="none" xmlns="http://www.w3.org/2000/svg">
<g clip-path="url(#clip0_235_818)">
<path d="M14.2811 18.1305C15.6923 19.6102 16.3979 21.6157 16.3979 24.1487V47.3479C16.3979 49.8826 15.6923 51.89 14.2811 53.3661C12.8699 54.8439 11.0664 55.5838 8.87222 55.5838H7.36724C5.14919 55.5838 3.36626 54.8439 2.01976 53.3661C0.6726 51.8897 0 49.8826 0 47.3479V24.1483C0 21.6153 0.6726 19.61 2.01976 18.1302C3.36626 16.6541 5.14919 15.9139 7.36724 15.9139H8.87222C11.0664 15.9142 12.8699 16.6541 14.2811 18.1305ZM8.19892 22.0114C7.69586 22.0114 7.28786 22.4189 7.28786 22.922V48.576C7.28786 49.0788 7.69554 49.4866 8.19892 49.4866C8.70198 49.4866 9.10998 49.0791 9.10998 48.576V22.922C9.10998 22.4192 8.70198 22.0114 8.19892 22.0114ZM26.5996 13.2283H33.9188V5.9375H26.5996V13.2283ZM26.5996 61.7279C26.5996 63.16 25.6173 63.8753 23.6556 63.8753V69.9987C27.4214 69.9987 30.073 69.2428 31.6115 67.7317C33.1495 66.2217 33.9188 64.2195 33.9188 61.7279V15.9142H26.5996V61.7279ZM51.2404 39.9128C50.7889 38.8523 50.2183 37.9123 49.53 37.0894C48.8401 36.2683 48.0979 35.4994 47.3025 34.7837C46.5067 34.068 45.7632 33.3395 45.075 32.5967C44.3851 31.8553 43.8144 31.23 43.3646 30.3814C42.9131 29.5341 42.6883 28.5529 42.6883 27.4392V22.9456C42.6883 22.4404 43.098 22.031 43.6033 22.031C44.1087 22.031 44.5183 22.4404 44.5183 22.9456V30.4196H51.2012V24.0985C51.2012 21.6079 50.4979 19.6194 49.0933 18.1351C47.6873 16.6515 45.8433 15.9086 43.5635 15.9086H42.8475C40.62 15.9086 38.8157 16.6639 37.4369 18.175C36.0571 19.686 35.3685 21.6614 35.3685 24.0987V27.9163C35.3685 30.0369 35.846 31.6026 36.8006 32.9543C37.7551 34.3063 38.8021 35.5265 39.9434 36.6127C41.0832 37.6997 42.131 38.7991 43.0856 39.9128C44.0408 41.0255 44.5177 42.405 44.5177 44.0476V48.1832C44.5177 48.8858 43.9476 49.4555 43.2447 49.4555C42.5417 49.4555 41.9716 48.8858 41.9716 48.1832V39.8328H35.3678V47.3081C35.3678 49.853 36.0567 51.8681 37.4362 53.3515C38.8151 54.8367 40.6447 55.5779 42.9262 55.5779H44.2783C46.5058 55.5779 48.336 54.8363 49.7678 53.3515C51.1999 51.8678 51.9163 49.853 51.9163 47.3081V43.5706C51.9166 42.1928 51.6902 40.9742 51.2404 39.9128Z" fill="white"/>
<path d="M25.1561 48.2622V55.5851H24.269H17.8393H17.8344L17.8393 55.5498V40.0783L17.8344 55.5851L17.8393 38.4517V13.2858H12.4297V5.96429C15.5222 5.96429 17.8261 3.16254 17.8261 0H25.1561V26.0905V32.1798V48.2622Z" fill="white"/>
</g>
<defs>
<clipPath id="clip0_235_818">
<rect width="52" height="70" fill="white"/>
</clipPath>
</defs>
</svg>
